<svg width="79" height="530" viewBox="0 0 79 530" fill="none" xmlns="http://www.w3.org/2000/svg">
<path d="M12.6219 39.5854C9.42016 36.9418 10.2499 31.8289 14.1234 30.3334C16.6937 29.3411 18.1133 26.581 17.4255 23.913C16.3891 19.8923 20.0657 16.2436 24.0784 17.3105C26.7411 18.0185 29.5119 16.6199 30.5237 14.0572C32.0485 10.1952 37.1676 9.40435 39.7868 12.6261C41.5248 14.764 44.5886 15.2612 46.9135 13.7826C50.4171 11.5545 55.0234 13.9236 55.2486 18.0696C55.3981 20.8207 57.5845 23.0238 60.3344 23.1941C64.4786 23.4509 66.8126 28.0751 64.5579 31.5617C63.0618 33.8753 63.5357 36.9427 65.6603 38.6969C68.8621 41.3405 68.0323 46.4534 64.1589 47.9489C61.5886 48.9412 60.169 51.7013 60.8567 54.3693C61.8931 58.39 58.2165 62.0387 54.2039 60.9718C51.5412 60.2638 48.7703 61.6624 47.7585 64.2251C46.2337 68.0871 41.1146 68.8779 38.4954 65.6562C36.7574 63.5183 33.6937 63.0211 31.3688 64.4997C27.8652 66.7278 23.2588 64.3587 23.0336 60.2127C22.8841 57.4616 20.6977 55.2585 17.9478 55.0881C13.8036 54.8314 11.4696 50.2072 13.7243 46.7206C15.2204 44.407 14.7465 41.3396 12.6219 39.5854Z" fill="#FBAF00"/>
<rect x="37" y="45" width="4" height="485" fill="#FBAF00"/>
<path d="M27.0074 40.7925L24.7644 42.6797H28.8946V45H20.8508V42.989L25.3522 38.9362C25.8473 38.4824 26.0948 38.0132 26.0948 37.5285C26.0948 37.1779 25.9762 36.9046 25.739 36.7087C25.5018 36.5127 25.1872 36.4147 24.7954 36.4147C24.4035 36.4147 24.089 36.5385 23.8518 36.786C23.6146 37.0232 23.496 37.379 23.496 37.8534H20.7734C20.7734 36.6571 21.155 35.7186 21.9181 35.038C22.6813 34.3574 23.6661 34.0171 24.8727 34.0171C26.069 34.0171 27.0229 34.3264 27.7345 34.9452C28.4563 35.5536 28.8173 36.389 28.8173 37.4512C28.8173 38.6681 28.214 39.7818 27.0074 40.7925ZM31.2532 43.5614C30.4075 42.4992 29.9847 41.174 29.9847 39.5859C29.9847 37.9977 30.4075 36.6726 31.2532 35.6104C32.0988 34.5482 33.1713 34.0171 34.4707 34.0171C35.7701 34.0171 36.8426 34.5482 37.6882 35.6104C38.5339 36.6726 38.9567 37.9977 38.9567 39.5859C38.9567 41.174 38.5339 42.4992 37.6882 43.5614C36.8426 44.6236 35.7701 45.1547 34.4707 45.1547C33.1713 45.1547 32.0988 44.6236 31.2532 43.5614ZM33.2022 37.3274C32.8722 37.9255 32.7072 38.6784 32.7072 39.5859C32.7072 40.4934 32.8722 41.2462 33.2022 41.8443C33.5426 42.4425 33.9654 42.7415 34.4707 42.7415C34.976 42.7415 35.3937 42.4425 35.7237 41.8443C36.064 41.2462 36.2342 40.4934 36.2342 39.5859C36.2342 38.6784 36.064 37.9255 35.7237 37.3274C35.3937 36.7293 34.976 36.4302 34.4707 36.4302C33.9654 36.4302 33.5426 36.7293 33.2022 37.3274ZM45.305 34.0171V42.6797H47.6253V45H39.8909V42.6797H42.6753V37.0026L39.8909 37.7296V35.4093L45.305 34.0171ZM53.9909 39.4312C54.7128 39.6581 55.2697 40.0138 55.6616 40.4985C56.0637 40.9729 56.2648 41.504 56.2648 42.0918C56.2648 42.9787 55.9039 43.7109 55.182 44.2884C54.4601 44.8659 53.4598 45.1547 52.181 45.1547C50.9023 45.1547 49.902 44.8659 49.1801 44.2884C48.4582 43.7109 48.0972 42.9787 48.0972 42.0918C48.0972 41.504 48.2932 40.9729 48.6851 40.4985C49.0873 40.0138 49.6493 39.6581 50.3712 39.4312C49.7834 39.194 49.3141 38.8537 48.9635 38.4102C48.6232 37.9565 48.453 37.4666 48.453 36.9407C48.453 36.126 48.8088 35.435 49.5204 34.8679C50.232 34.3007 51.1188 34.0171 52.181 34.0171C53.2432 34.0171 54.1301 34.3007 54.8417 34.8679C55.5533 35.435 55.9091 36.126 55.9091 36.9407C55.9091 37.4666 55.7337 37.9565 55.3831 38.4102C55.0428 38.8537 54.5787 39.194 53.9909 39.4312ZM52.9545 36.6468C52.7482 36.4508 52.4904 36.3529 52.181 36.3529C51.8717 36.3529 51.6139 36.4508 51.4076 36.6468C51.2013 36.8427 51.0982 37.0851 51.0982 37.3738C51.0982 37.6523 51.2013 37.8894 51.4076 38.0854C51.6139 38.2813 51.8717 38.3793 52.181 38.3793C52.4904 38.3793 52.7482 38.2813 52.9545 38.0854C53.1607 37.8894 53.2639 37.6523 53.2639 37.3738C53.2639 37.0851 53.1607 36.8427 52.9545 36.6468ZM51.1137 42.5095C51.3715 42.7158 51.7273 42.8189 52.181 42.8189C52.6348 42.8189 52.9854 42.7158 53.2329 42.5095C53.4907 42.2929 53.6197 42.0145 53.6197 41.6742C53.6197 41.3339 53.4856 41.0503 53.2175 40.8234C52.9596 40.5965 52.6142 40.4831 52.181 40.4831C51.7479 40.4831 51.3973 40.5965 51.1292 40.8234C50.8713 41.0503 50.7424 41.3339 50.7424 41.6742C50.7424 42.0145 50.8662 42.2929 51.1137 42.5095Z" fill="#070909"/>
</svg>
