<svg width="68" height="73" viewBox="0 0 68 73" fill="none" xmlns="http://www.w3.org/2000/svg">
<path d="M34.2999 34.4857C25.6724 34.4857 18.6535 41.5046 18.6535 50.1321C18.6535 58.7596 25.6724 65.7786 34.2999 65.7786C42.9274 65.7786 49.9464 58.7596 49.9464 50.1321C49.9464 41.5046 42.9274 34.4857 34.2999 34.4857ZM34.2999 63.3714C26.9998 63.3714 21.0606 57.4322 21.0606 50.1321C21.0606 42.832 26.9998 36.8928 34.2999 36.8928C41.6001 36.8928 47.5392 42.832 47.5392 50.1321C47.5392 57.4322 41.6001 63.3714 34.2999 63.3714ZM35.2628 39.7814C35.0355 39.4782 34.6788 39.3 34.2999 39.3C33.9211 39.3 33.5644 39.4782 33.3371 39.7814L30.0023 44.2278L24.4353 45.3412C24.03 45.4222 23.6945 45.7057 23.5471 46.0917C23.3996 46.4779 23.4604 46.9127 23.7085 47.2434L26.9964 51.6273L25.8983 57.1174C25.8142 57.5382 25.9604 57.9719 26.2819 58.2556C26.6035 58.5398 27.0522 58.6307 27.459 58.4953L34.2999 56.2151L41.1407 58.4954C41.2653 58.5368 41.3938 58.5571 41.5212 58.5571C41.8104 58.5571 42.0946 58.453 42.3178 58.2558C42.6395 57.9719 42.7856 57.5382 42.7015 57.1175L41.6034 51.6274L44.8914 47.2435C45.1395 46.9129 45.2004 46.4781 45.0528 46.0919C44.9054 45.7058 44.5699 45.4224 44.1646 45.3413L38.5976 44.228L35.2628 39.7814ZM39.3549 50.6136C39.1494 50.8874 39.0704 51.236 39.1376 51.5717L39.9343 55.5559L34.6806 53.8045C34.5571 53.7635 34.4286 53.7428 34.2999 53.7428C34.1713 53.7428 34.0428 53.7635 33.9193 53.8045L28.6654 55.5559L29.4622 51.5717C29.5293 51.236 29.4503 50.8874 29.2448 50.6136L26.78 47.327L30.9251 46.4979C31.2155 46.4399 31.4743 46.2768 31.6519 46.0398L34.2998 42.5093L36.9477 46.0398C37.1253 46.2768 37.3841 46.4399 37.6745 46.4979L41.8196 47.327L39.3549 50.6136ZM56.5487 26.814C53.2404 24.976 49.964 23.8005 47.8248 23.1434C49.8236 21.5587 52.6654 19.0235 53.4801 16.8553C54.5451 14.0209 57.0192 5.09594 57.124 4.71742C57.2244 4.35514 57.1496 3.96669 56.922 3.66745C56.6945 3.36851 56.3402 3.19279 55.9642 3.19279C53.7944 3.19279 52.6251 3.97225 51.6855 4.59856C50.8462 5.15792 50.1833 5.59994 48.7422 5.59994C47.5943 5.59994 47.0164 4.90412 46.0939 3.67407C45.1286 2.3873 43.9273 0.785645 41.52 0.785645C39.1129 0.785645 37.9117 2.3873 36.9466 3.67422C36.0242 4.90412 35.4465 5.59994 34.2989 5.59994C33.1513 5.59994 32.5734 4.90412 31.651 3.67422C30.6858 2.38715 29.4846 0.785645 27.0776 0.785645C24.6705 0.785645 23.4694 2.3873 22.5043 3.67422C21.5819 4.90412 21.0042 5.59994 19.8566 5.59994C18.4158 5.59994 17.7529 5.15792 16.9137 4.59856C15.9743 3.97225 14.8052 3.19279 12.6356 3.19279C12.2598 3.19279 11.9054 3.36851 11.6777 3.6676C11.4501 3.96669 11.3753 4.35514 11.4757 4.71757C11.5806 5.09609 14.0547 14.021 15.1197 16.8554C15.9343 19.0237 18.7761 21.5589 20.7749 23.1435C18.6357 23.8005 15.3593 24.9761 12.0512 26.814C4.55967 30.9759 0.599915 36.542 0.599915 42.9107C0.599915 43.5754 1.13881 44.1143 1.80349 44.1143C2.46816 44.1143 3.00706 43.5754 3.00706 42.9107C3.00706 37.4039 6.42791 32.7047 13.1747 28.9434C15.5454 27.6217 17.9345 26.6536 19.8396 25.9891C16.281 30.2547 10.389 37.9843 9.05486 43.8472C8.60623 45.8191 7.80766 51.5466 6.68157 60.8704C6.31041 63.9445 7.27553 67.0363 9.32958 69.3535C11.3841 71.6708 14.3387 73 17.4358 73H51.1639C54.2612 73 57.2158 71.6708 59.2702 69.3535C61.3242 67.0365 62.2893 63.9445 61.9182 60.8704C60.7921 51.5465 59.9935 45.8191 59.5449 43.8472C58.2107 37.9843 52.3189 30.2547 48.7601 25.9891C50.6654 26.6537 53.0545 27.6219 55.4252 28.9434C62.172 32.7047 65.5928 37.4039 65.5928 42.9107C65.5928 43.5754 66.1317 44.1143 66.7964 44.1143C67.4611 44.1143 68 43.5754 68 42.9107C68 36.542 64.0402 30.9759 56.5487 26.814ZM44.5982 24.8571C45.0083 25.3148 45.7509 26.1567 46.6793 27.2642H21.9213C22.8495 26.1567 23.5921 25.3148 24.0019 24.8571H44.5982ZM17.373 16.0089C16.6283 14.0269 15.0971 8.69658 14.3009 5.87841C14.7658 6.0597 15.149 6.31516 15.5784 6.60146C16.5178 7.22762 17.6869 8.00708 19.8566 8.00708C22.2636 8.00708 23.4648 6.40543 24.43 5.11851C25.3523 3.88861 25.9301 3.19279 27.0776 3.19279C28.2252 3.19279 28.8029 3.88861 29.7255 5.11851C30.6906 6.40558 31.8919 8.00708 34.299 8.00708C36.7062 8.00708 37.9073 6.40543 38.8725 5.11851C39.7949 3.88861 40.3726 3.19279 41.5202 3.19279C42.6679 3.19279 43.2458 3.88861 44.1683 5.11851C45.1336 6.40558 46.3349 8.00708 48.7422 8.00708C50.9121 8.00708 52.0814 7.22762 53.0208 6.60131C53.4503 6.31501 53.8338 6.0594 54.299 5.87811C53.5029 8.69628 51.9715 14.0267 51.227 16.0087C50.4605 18.0483 46.5455 21.1632 44.75 22.4498H43.1913L45.0704 16.8126C45.2806 16.1819 44.9398 15.5002 44.3092 15.29C43.6783 15.08 42.9968 15.4208 42.7868 16.0513L40.6539 22.45H35.5035V16.4321C35.5035 15.7674 34.9646 15.2285 34.2999 15.2285C33.6351 15.2285 33.0964 15.7674 33.0964 16.4321V22.45H27.946L25.8131 16.0515C25.6029 15.4211 24.9211 15.0802 24.2907 15.2902C23.6602 15.5004 23.3193 16.182 23.5295 16.8127L25.4086 22.45H23.8499C22.0545 21.1632 18.1394 18.0485 17.373 16.0089ZM59.5285 61.159C59.8173 63.5499 59.0666 65.9544 57.4692 67.7566C55.8711 69.5591 53.573 70.5929 51.1641 70.5929H17.4358C15.0268 70.5929 12.7286 69.5591 11.1307 67.7565C9.53328 65.9543 8.78255 63.5497 9.07141 61.1588C10.1718 52.0475 10.9777 46.2458 11.402 44.3811C12.4273 39.876 16.6204 33.898 19.9615 29.6712H48.6392C51.9798 33.8968 56.1719 39.8733 57.1976 44.3811C57.6222 46.2459 58.4281 52.0475 59.5285 61.159Z" fill="#FBAF00"/>
</svg>
