<svg width="82" height="73" viewBox="0 0 82 73" fill="none" xmlns="http://www.w3.org/2000/svg">
<path d="M62.0741 30.5648C62.0722 30.5498 62.0711 30.5345 62.0689 30.5197C62.0583 30.4454 62.0441 30.3714 62.0241 30.2983L62.0234 30.2959C62.0046 30.2276 61.9808 30.1601 61.9538 30.0935C61.946 30.0744 61.9376 30.056 61.9293 30.0372C61.908 29.9891 61.8843 29.9417 61.8586 29.8951C61.8474 29.8747 61.8365 29.8543 61.8244 29.8342C61.818 29.8234 61.8128 29.8122 61.806 29.8014C61.7789 29.7582 61.7491 29.7176 61.719 29.6774C61.7133 29.6698 61.7087 29.6619 61.703 29.6546C61.6571 29.5951 61.6075 29.5398 61.5555 29.4874C61.5457 29.4775 61.5351 29.4683 61.525 29.4587C61.4798 29.4152 61.4329 29.3744 61.3841 29.336C61.3716 29.3263 61.3595 29.3166 61.3466 29.3072C61.2812 29.2587 61.2138 29.2135 61.1434 29.1744L34.0788 13.7902L49.6617 3.9777L75.7861 18.8271L64.7838 25.7552C63.9251 26.2957 63.6674 27.4301 64.208 28.2885C64.7485 29.1472 65.8827 29.4049 66.7413 28.8643L80.3404 20.3012C80.8871 19.9571 81.2128 19.351 81.1981 18.7051C81.1836 18.0592 80.8311 17.4688 80.2693 17.1495L50.5211 0.239999C49.9327 -0.0947144 49.2076 -0.0781806 48.6345 0.282436L29.537 12.3081C29.5332 12.3105 29.5291 12.313 29.5253 12.3154L19.9823 18.3246C19.9779 18.3274 19.9734 18.3302 19.9692 18.3329L0.858753 30.3668C0.312042 30.7109 -0.0136701 31.3169 0.0010264 31.9629C0.0155392 32.6088 0.368072 33.1992 0.929848 33.5185L30.6782 50.428C30.96 50.5883 31.2731 50.6681 31.5859 50.6681C31.9263 50.6681 32.2662 50.5735 32.5647 50.3855L46.1638 41.8222C47.0224 41.2818 47.2802 40.1474 46.7395 39.2889C46.1992 38.4303 45.0647 38.1723 44.2062 38.7132L31.5376 46.6904L5.41321 31.8407L20.9963 22.028L48.8591 37.8657V58.8417C48.8591 59.5108 49.2227 60.1268 49.8083 60.4501C50.0852 60.6029 50.3909 60.6788 50.6962 60.6788C51.0368 60.6788 51.3767 60.5842 51.675 60.3963L61.2303 54.3793C61.7645 54.0429 62.0886 53.456 62.0886 52.8248V30.78C62.0886 30.7691 62.0868 30.7588 62.0864 30.748C62.0853 30.687 62.0812 30.626 62.0741 30.5648ZM52.5333 55.5143V36.7971C52.5333 36.1363 52.1783 35.5266 51.6039 35.2001L24.5235 19.8072L30.5515 16.0112L56.6757 30.8608L54.3883 32.3011C53.5297 32.8415 53.2719 33.9759 53.8126 34.8344C54.1616 35.3892 54.7585 35.6928 55.369 35.6928C55.7033 35.6928 56.0421 35.6015 56.3459 35.4101L58.4143 34.1078V51.8109L52.5333 55.5143Z" fill="#FBAF00"/>
<path d="M78.383 24.5402L64.7839 33.1033C63.9253 33.6438 63.6675 34.7782 64.2082 35.6366C64.5572 36.1914 65.1541 36.4951 65.7646 36.4951C66.0989 36.4951 66.4377 36.4038 66.7415 36.2124L80.3406 27.6492C81.1992 27.1088 81.457 25.9744 80.9163 25.1159C80.3759 24.2573 79.2415 23.9993 78.383 24.5402Z" fill="#FBAF00"/>
<path d="M44.206 46.0613L31.5374 54.0386L2.74521 37.6727C1.86379 37.1715 0.741704 37.4794 0.240368 38.3619C-0.260968 39.2439 0.047476 40.3655 0.929636 40.8668L30.678 57.7763C30.9598 57.9366 31.2729 58.0164 31.5857 58.0164C31.9261 58.0164 32.266 57.9218 32.5645 57.7338L46.1636 49.1705C47.0222 48.6301 47.28 47.4957 46.7393 46.6372C46.199 45.7784 45.0645 45.5204 44.206 46.0613Z" fill="#FBAF00"/>
<path d="M78.383 31.8884L64.7839 40.4515C63.9253 40.992 63.6675 42.1264 64.2082 42.9848C64.5572 43.5396 65.1541 43.8433 65.7646 43.8433C66.0989 43.8433 66.4377 43.752 66.7415 43.5605L80.3406 34.9974C81.1992 34.457 81.457 33.3226 80.9163 32.4641C80.3759 31.6053 79.2415 31.3475 78.383 31.8884Z" fill="#FBAF00"/>
<path d="M44.206 53.4097L31.5374 61.387L2.74521 45.0211C1.86379 44.5199 0.741704 44.8278 0.240368 45.7103C-0.260968 46.5923 0.047476 47.7138 0.929636 48.2152L30.678 65.1247C30.9598 65.285 31.2729 65.3648 31.5857 65.3648C31.9261 65.3648 32.266 65.2701 32.5645 65.0822L46.1636 56.5189C47.0222 55.9784 47.28 54.8441 46.7393 53.9856C46.199 53.1266 45.0645 52.8688 44.206 53.4097Z" fill="#FBAF00"/>
<path d="M78.383 39.2366L64.7839 47.7998C63.9253 48.3402 63.6675 49.4746 64.2082 50.3331C64.5572 50.8879 65.1541 51.1915 65.7646 51.1915C66.0989 51.1915 66.4377 51.1002 66.7415 50.9088L80.3406 42.3457C81.1992 41.8052 81.457 40.6708 80.9163 39.8124C80.3759 38.9537 79.2415 38.696 78.383 39.2366Z" fill="#FBAF00"/>
<path d="M44.206 60.7576L31.5374 68.7349L2.74521 52.369C1.86379 51.8678 0.741704 52.1757 0.240368 53.0582C-0.260968 53.9402 0.047476 55.0617 0.929636 55.5631L30.678 72.4726C30.9598 72.6329 31.2729 72.7127 31.5857 72.7127C31.9261 72.7127 32.266 72.618 32.5645 72.4301L46.1636 63.8668C47.0222 63.3263 47.28 62.192 46.7393 61.3335C46.199 60.4747 45.0645 60.2167 44.206 60.7576Z" fill="#FBAF00"/>
</svg>
