<svg width="26" height="26" viewBox="0 0 26 26" fill="none" xmlns="http://www.w3.org/2000/svg">
<circle cx="13" cy="13" r="13" fill="#FBAF00"/>
<path d="M3.51343 11.6487C2.96114 11.6487 2.51343 12.0964 2.51343 12.6487C2.51343 13.201 2.96114 13.6487 3.51343 13.6487V11.6487ZM21.8022 13.3558C22.1927 12.9653 22.1927 12.3321 21.8022 11.9416L15.4382 5.57761C15.0477 5.18709 14.4145 5.18709 14.024 5.57761C13.6335 5.96814 13.6335 6.6013 14.024 6.99183L19.6808 12.6487L14.024 18.3055C13.6335 18.6961 13.6335 19.3292 14.024 19.7197C14.4145 20.1103 15.0477 20.1103 15.4382 19.7197L21.8022 13.3558ZM3.51343 13.6487H21.095V11.6487H3.51343V13.6487Z" fill="#070909"/>
</svg>
