<svg width="32" height="32" viewBox="0 0 32 32" fill="none" xmlns="http://www.w3.org/2000/svg">
<rect width="32" height="32" rx="16" fill="#FBAF00"/>
<path d="M24 9.68858C23.2 10.0806 22.416 10.2398 21.6 10.4806C20.7032 9.46858 19.3736 9.41258 18.096 9.89098C16.8184 10.3694 15.9816 11.539 16 12.8806V13.6806C13.404 13.747 11.092 12.5646 9.6 10.4806C9.6 10.4806 6.2544 16.427 12.8 19.2806C11.3024 20.2782 9.8088 20.951 8 20.8806C10.6464 22.323 13.5304 22.819 16.0272 22.0942C18.8912 21.2622 21.2448 19.1158 22.148 15.9006C22.4174 14.9227 22.5512 13.9125 22.5456 12.8982C22.544 12.699 23.7536 10.6806 24 9.68778V9.68858Z" fill="#070909"/>
</svg>
