<svg width="49" height="46" viewBox="0 0 49 46" fill="none" xmlns="http://www.w3.org/2000/svg">
<rect width="48.359" height="46" rx="11.7949" fill="#FBAF00"/>
<path d="M26.1862 16.9552C27.1199 17.5484 27.7747 18.5521 27.8939 19.7172C28.2747 19.8975 28.6973 20.0011 29.1454 20.0011C30.7812 20.0011 32.1071 18.6578 32.1071 17.0007C32.1071 15.3433 30.7812 14 29.1454 14C27.5252 14.0005 26.2109 15.3198 26.1862 16.9552ZM24.246 23.0991C25.8818 23.0991 27.2076 21.7555 27.2076 20.0984C27.2076 18.4413 25.8815 17.098 24.246 17.098C22.6104 17.098 21.2838 18.4416 21.2838 20.0987C21.2838 21.7558 22.6104 23.0991 24.246 23.0991ZM25.5023 23.3036H22.9892C20.8982 23.3036 19.1971 25.0274 19.1971 27.1459V30.2597L19.2049 30.3085L19.4166 30.3757C21.412 31.0074 23.1457 31.218 24.5726 31.218C27.3596 31.218 28.975 30.4129 29.0746 30.3616L29.2724 30.2603H29.2936V27.1459C29.2943 25.0274 27.5932 23.3036 25.5023 23.3036ZM30.4022 20.2059H27.9085C27.8815 21.2168 27.4556 22.1271 26.782 22.7817C28.6406 23.3417 30.0005 25.0879 30.0005 27.1505V28.1101C32.4627 28.0187 33.8815 27.3116 33.975 27.2641L34.1729 27.1625H34.194V24.0477C34.194 21.9294 32.4929 20.2059 30.4022 20.2059ZM19.0491 20.0017C19.6285 20.0017 20.1676 19.8303 20.6242 19.5385C20.7694 18.5792 21.277 17.7409 22.002 17.17C22.005 17.1138 22.0103 17.0581 22.0103 17.0015C22.0103 15.3441 20.6842 14.0008 19.0491 14.0008C17.4131 14.0008 16.0874 15.3441 16.0874 17.0015C16.0874 18.6581 17.4131 20.0017 19.0491 20.0017ZM21.7089 22.7817C21.0386 22.1304 20.6142 21.225 20.5832 20.2202C20.4907 20.2133 20.3992 20.2059 20.3049 20.2059H17.7921C15.7011 20.2059 14 21.9294 14 24.0477V27.162L14.0078 27.21L14.2195 27.2777C15.8203 27.784 17.249 28.0174 18.4899 28.0909V27.1505C18.4904 25.0879 19.8498 23.3422 21.7089 22.7817Z" fill="#070909"/>
</svg>
