<svg width="49" height="46" viewBox="0 0 49 46" fill="none" xmlns="http://www.w3.org/2000/svg">
<rect width="48.359" height="46" rx="11.7949" fill="#FBAF00"/>
<path d="M19.1093 19.1311C22.4534 19.1311 25.1738 21.8514 25.1738 25.1956C25.1738 28.5397 22.4535 31.2601 19.1093 31.2601C15.7652 31.2601 12.9999 28.5397 12.9999 25.1956C12.9999 21.8514 15.7652 19.1311 19.1093 19.1311ZM18.4178 28.443C18.4236 28.4452 18.4297 28.4442 18.4355 28.4462V29.2386C18.4355 29.6111 18.7369 29.9124 19.1094 29.9124C19.4818 29.9124 19.7832 29.6111 19.7832 29.2386V28.4416C20.227 28.2917 20.6523 28.0071 21.0158 27.5738C21.2553 27.2888 21.2185 26.8637 20.9328 26.6249C20.6479 26.3853 20.2215 26.4222 19.9839 26.7078C19.6273 27.1322 19.2239 27.3007 18.8791 27.177C18.6139 27.0802 18.4355 26.8256 18.4355 26.5433C18.4355 26.1715 18.7376 25.8694 19.1094 25.8694C20.2241 25.8694 21.1309 24.9626 21.1309 23.848C21.1309 23.034 20.6466 22.3028 19.897 21.9857C19.8599 21.97 19.8206 21.9709 19.7832 21.9575V21.1526C19.7832 20.7802 19.4818 20.4788 19.1093 20.4788C18.7369 20.4788 18.4355 20.7802 18.4355 21.1526V21.9587C18.0866 22.0766 17.7463 22.264 17.4425 22.5582C17.1754 22.8168 17.1688 23.2432 17.4281 23.5111C17.6867 23.7782 18.1138 23.7842 18.3809 23.5255C18.7086 23.2077 19.0712 23.0985 19.3713 23.2268C19.6213 23.3327 19.7832 23.5762 19.7832 23.848C19.7832 24.2198 19.4812 24.5218 19.1094 24.5218C17.9947 24.5218 17.0879 25.4287 17.0879 26.5433C17.0878 27.3902 17.6222 28.1535 18.4178 28.443Z" fill="#070909"/>
<path d="M35.3262 25.8698C35.6986 25.8698 36 26.1711 36 26.5436V33.3268C36 33.6993 35.6986 34.0007 35.3262 34.0007H33.3047V25.8698H35.3262Z" fill="#070909"/>
<path d="M20.0185 15.2059L24.7354 11.1629C24.9867 10.9457 25.3605 10.9457 25.6119 11.1629L30.3287 15.2059C30.5432 15.3888 30.6202 15.6862 30.5222 15.9508C30.4248 16.2153 30.1728 16.391 29.8904 16.391H27.8689C27.8689 22.2166 27.8689 28.1746 27.8689 34.0005C26.133 34.0005 24.9329 34.0005 23.1521 34.0005C22.7796 34.0005 22.4782 33.6992 22.4782 33.3267V31.7897C24.8745 30.5602 26.5213 28.0693 26.5213 25.1958C26.5213 22.3224 24.8745 19.8314 22.4782 18.6019V16.3911H20.4568C20.1745 16.3911 19.9224 16.2154 19.825 15.9508C19.727 15.6862 19.8039 15.3888 20.0185 15.2059Z" fill="#070909"/>
<path d="M31.2383 20.479C31.6107 20.479 31.9121 20.7804 31.9121 21.1528V25.8697V34.0005C30.9279 34.0005 30.1724 34.0005 29.2168 34.0005V20.479H31.2383Z" fill="#070909"/>
</svg>
