<svg width="54" height="52" viewBox="0 0 54 52" fill="none" xmlns="http://www.w3.org/2000/svg">
<g filter="url(#filter0_d_1454_2)">
<rect x="9" y="7" width="33.3422" height="31.7158" rx="15.8579" fill="white"/>
</g>
<path d="M15.7883 21.168H13.5602V18.0629H15.8361C16.2404 18.0629 16.573 18.0814 16.8341 18.1181C17.0956 18.155 17.2971 18.2129 17.4385 18.2916C17.5798 18.3701 17.6759 18.4702 17.7265 18.5915C17.7769 18.7125 17.8022 18.8575 17.8022 19.0264C17.7977 19.1593 17.7611 19.2696 17.6925 19.3568C17.6242 19.4443 17.5442 19.5091 17.4525 19.5517C17.3607 19.5942 17.2803 19.6155 17.2111 19.6155C17.2789 19.6155 17.3583 19.6288 17.4492 19.6554C17.5404 19.682 17.6288 19.7205 17.7145 19.7711C17.8004 19.8216 17.8717 19.8831 17.9286 19.9552C17.9857 20.0275 18.0143 20.1098 18.0143 20.2019C18.0143 20.3234 18 20.4346 17.9718 20.5357C17.9438 20.6368 17.8875 20.7263 17.8029 20.8043C17.7186 20.8824 17.5943 20.9484 17.4299 21.0024C17.2653 21.0567 17.0499 21.0979 16.7836 21.1261C16.5171 21.154 16.1853 21.168 15.7883 21.168ZM15.7151 19.3489C15.9056 19.3489 16.0532 19.3395 16.158 19.3209C16.2625 19.3023 16.335 19.274 16.3754 19.2358C16.4156 19.1972 16.4358 19.1484 16.4358 19.0889C16.4358 19.0287 16.4156 18.9795 16.3754 18.9413C16.335 18.9027 16.2625 18.8746 16.158 18.8568C16.0532 18.8387 15.9056 18.8296 15.7151 18.8296H14.864V19.3489H15.7151ZM15.7151 20.4014C15.9096 20.4014 16.0675 20.3964 16.1885 20.3861C16.3099 20.376 16.3988 20.3528 16.4551 20.3169C16.5118 20.281 16.5402 20.2225 16.5402 20.1414C16.5402 20.0608 16.5118 20.0021 16.4551 19.9652C16.3988 19.9285 16.3099 19.9054 16.1885 19.896C16.0675 19.8864 15.9096 19.8814 15.7151 19.8814H14.864V20.4014H15.7151ZM22.1742 21.1684H18.5472V18.0607H19.851V20.3998H22.1742V21.1684H22.1742ZM27.4894 21.168H26.1682L25.8763 20.6594H23.9162L23.6243 21.168H22.3031L24.2912 18.0629H25.5013L27.4894 21.168ZM25.4361 19.8901L24.8975 18.9486L24.3557 19.8901H25.4362L25.4361 19.8901ZM29.8852 21.2354C29.1169 21.2354 28.5517 21.0775 28.1897 20.7613C27.8692 20.4826 27.709 20.1014 27.709 19.6177C27.709 19.1341 27.8692 18.7523 28.1897 18.4721C28.5517 18.1574 29.1169 18 29.8852 18C30.3355 18 30.7078 18.0517 31.0022 18.1549C31.2969 18.2583 31.5258 18.3994 31.689 18.5785C31.8521 18.7576 31.9603 18.9626 32.0135 19.1935H30.6432C30.5057 18.9525 30.253 18.8318 29.8852 18.8318C29.5704 18.8318 29.3386 18.9227 29.1897 19.1044C29.0714 19.249 29.0122 19.42 29.0122 19.6177C29.0122 19.8155 29.0714 19.9865 29.1897 20.131C29.3386 20.3128 29.5704 20.4036 29.8852 20.4036C30.253 20.4036 30.5057 20.2824 30.6432 20.0399H32.0135C31.9603 20.2726 31.8521 20.4785 31.689 20.6576C31.5258 20.8363 31.2969 20.9772 31.0022 21.0804C30.7078 21.1837 30.3355 21.2354 29.8852 21.2354ZM37.6471 21.1684H35.9536L34.6199 20.1292L33.8493 20.6551V21.1684H32.5454V18.0607H33.8492V19.4989L35.9411 18.0607H37.6471L35.4211 19.5813L37.6471 21.1684ZM14.1762 25.867C13.4079 25.867 12.8428 25.7091 12.4807 25.3929C12.1603 25.1142 12 24.733 12 24.2493C12 23.7657 12.1603 23.3839 12.4807 23.1037C12.8428 22.789 13.4079 22.6316 14.1762 22.6316C14.6265 22.6316 14.9989 22.6833 15.2933 22.7865C15.588 22.8899 15.8168 23.031 15.9801 23.2101C16.1431 23.3893 16.2514 23.5942 16.3045 23.8251H14.9342C14.7968 23.5841 14.5441 23.4634 14.1762 23.4634C13.8614 23.4634 13.6297 23.5543 13.4807 23.736C13.3624 23.8806 13.3032 24.0517 13.3032 24.2493C13.3032 24.4471 13.3624 24.6181 13.4807 24.7626C13.6297 24.9444 13.8614 25.0352 14.1762 25.0352C14.5441 25.0352 14.7968 24.9141 14.9342 24.6715H16.3045C16.2514 24.9042 16.1431 25.1101 15.9801 25.2892C15.8168 25.4679 15.588 25.6089 15.2933 25.712C14.9989 25.8153 14.6265 25.867 14.1762 25.867ZM18.8397 25.8665C18.0714 25.8665 17.5062 25.7087 17.1442 25.3925C16.8237 25.1124 16.6635 24.7306 16.6635 24.2469C16.6635 23.7647 16.8237 23.3835 17.1442 23.1033C17.5062 22.7873 18.0714 22.6292 18.8397 22.6292C19.6073 22.6292 20.1725 22.7872 20.5352 23.1033C20.8556 23.3835 21.0158 23.7647 21.0158 24.2469C21.0158 24.7306 20.8556 25.1124 20.5352 25.3925C20.1725 25.7087 19.6073 25.8666 18.8397 25.8666V25.8665ZM18.8397 25.0328C19.1543 25.0328 19.3852 24.9427 19.5325 24.7622C19.6508 24.6164 19.71 24.4447 19.71 24.2469C19.71 24.0492 19.6508 23.8782 19.5325 23.7336C19.3852 23.5519 19.1543 23.461 18.8397 23.461C18.5248 23.461 18.2931 23.5519 18.1442 23.7336C18.0258 23.8782 17.9666 24.0492 17.9666 24.2469C17.9666 24.4447 18.0258 24.6164 18.1442 24.7622C18.2931 24.9427 18.5248 25.0328 18.8397 25.0328V25.0328ZM23.6272 25.7997H21.5481V22.692H23.6272C24.4773 22.692 25.0887 22.8114 25.461 23.0497C25.7615 23.2417 25.9326 23.503 25.9743 23.8336C25.9929 23.9764 26.0023 24.1142 26.0023 24.2472C26.0023 24.3785 25.9931 24.5158 25.975 24.6594C25.9572 24.8031 25.9093 24.9425 25.8314 25.0776C25.7532 25.2125 25.6294 25.3341 25.4597 25.4427C25.2903 25.5509 25.0581 25.6375 24.7629 25.7027C24.4677 25.7675 24.089 25.7997 23.6272 25.7997ZM23.5036 25.0311C24.1661 25.0311 24.5408 24.8636 24.6272 24.5284C24.6501 24.4364 24.6617 24.342 24.6618 24.2472C24.6618 24.1519 24.6498 24.0577 24.6259 23.9646C24.6023 23.8715 24.5518 23.7871 24.4743 23.7113C24.3972 23.6355 24.2815 23.575 24.1272 23.5298C23.973 23.4842 23.765 23.4613 23.5036 23.4613H22.8519V25.0311H23.5036Z" fill="black"/>
<path d="M30.7791 25.7596H29.476V24.5056H27.839V25.7596H26.5352V22.6519H27.839V23.9078H29.476V22.6518H30.7792V25.7595L30.7791 25.7596Z" fill="#FDA700"/>
<path d="M35.2268 25.7595H31.4848V22.6518H35.056V23.4211H32.7887V23.9078H34.7049V24.5055H32.7887V24.9909H35.2268V25.7595ZM39.9999 25.7595H38.7678C38.7115 25.6816 38.6718 25.582 38.6488 25.461C38.628 25.3661 38.5975 25.2737 38.5578 25.1851C38.5173 25.0947 38.4477 25.0195 38.3489 24.9597C38.2501 24.8995 38.1031 24.8672 37.9081 24.8632H37.0617V25.7595H35.7579V22.6518H37.8782C38.3849 22.6518 38.7934 22.6897 39.1042 22.7655C39.4155 22.8413 39.6424 22.9607 39.7851 23.1232C39.9283 23.2855 39.9999 23.4974 39.9999 23.7589C39.9999 23.9766 39.9504 24.1598 39.8516 24.3087C39.7528 24.4573 39.5965 24.575 39.3829 24.6618C39.5893 24.7469 39.7233 24.8491 39.7845 24.9683C39.846 25.0872 39.8839 25.2181 39.8982 25.3613C39.9128 25.4881 39.9467 25.6209 39.9999 25.7595ZM37.0617 24.0966L37.8064 24.0939C38.0142 24.0939 38.1781 24.0847 38.2977 24.066C38.4177 24.0475 38.5062 24.022 38.5631 23.9896C38.6202 23.9568 38.6568 23.9208 38.6728 23.8812C38.6887 23.8413 38.6967 23.8006 38.6967 23.7589C38.6967 23.7168 38.6887 23.6756 38.6728 23.6352C38.6568 23.595 38.6202 23.5585 38.563 23.5262C38.5062 23.4934 38.4178 23.4677 38.2977 23.449C38.1781 23.4304 38.0142 23.4211 37.8064 23.4211H37.0617V24.0966ZM19.6232 27.741C19.5814 27.8306 19.4799 27.8919 19.3753 27.8919C19.2109 27.8919 19.0795 27.7515 19.0795 27.5782C19.0795 27.4064 19.2109 27.2646 19.3753 27.2646C19.4784 27.2646 19.5799 27.3213 19.6217 27.4124H19.8712C19.8366 27.3083 19.77 27.2178 19.681 27.1537C19.592 27.0896 19.485 27.0552 19.3753 27.0555C19.0869 27.0555 18.8525 27.2898 18.8525 27.5782C18.8525 27.8665 19.0869 28.101 19.3753 28.101C19.6067 28.101 19.804 27.9501 19.8727 27.741H19.6232H19.6232ZM20.7856 27.5767C20.7856 27.7335 20.6436 27.877 20.4869 27.877C20.3299 27.877 20.188 27.7335 20.188 27.5767C20.188 27.4199 20.3299 27.2781 20.4869 27.2781C20.6436 27.2781 20.7856 27.4199 20.7856 27.5767ZM21.0097 27.5782C21.0097 27.2973 20.7676 27.0554 20.4869 27.0554C20.206 27.0554 19.9641 27.2973 19.9641 27.5782C19.9641 27.859 20.206 28.101 20.4869 28.101C20.7676 28.101 21.0097 27.859 21.0097 27.5782H21.0097ZM21.3756 27.8803V27.2785H21.4427C21.6161 27.2785 21.7326 27.4098 21.7326 27.5787C21.7326 27.7474 21.6146 27.8804 21.4427 27.8804H21.3755L21.3756 27.8803ZM21.1545 27.0707V28.0865H21.4562C21.7446 28.0865 21.9612 27.8654 21.9612 27.5787C21.9612 27.2918 21.7431 27.0707 21.4561 27.0707H21.1544H21.1545ZM22.1046 27.0707H22.3287V28.0865H22.1046V27.0707ZM23.3063 28.0865V27.0707H23.0822V27.7042L22.7327 27.0707H22.5086V28.0865H22.7327V27.4532L23.0822 28.0865H23.3063ZM23.9952 27.2646C24.0939 27.2646 24.1955 27.3048 24.2447 27.4124H24.4912C24.4209 27.2018 24.2193 27.0555 23.9952 27.0555C23.7084 27.0555 23.4724 27.2913 23.4724 27.5782C23.4724 27.865 23.7084 28.101 23.9952 28.101C24.2851 28.101 24.5166 27.8665 24.5166 27.5782V27.5438H24.0161V27.7126H24.2746C24.2192 27.8665 24.0939 27.8979 23.9952 27.8979C23.8339 27.8979 23.6995 27.753 23.6995 27.5813C23.6995 27.4094 23.834 27.2646 23.9952 27.2646ZM25.5248 27.7893C25.5248 27.8564 25.468 27.9118 25.4008 27.9118H25.2589V27.6668H25.4008C25.468 27.6668 25.5248 27.7235 25.5248 27.7893V27.7893ZM25.4545 27.3651C25.4545 27.4292 25.4008 27.4831 25.3365 27.4831H25.2589V27.247H25.3365C25.3678 27.2471 25.3978 27.2595 25.4199 27.2816C25.4421 27.3038 25.4545 27.3338 25.4545 27.3651ZM25.7532 27.7952C25.7532 27.6578 25.6607 27.5667 25.5471 27.5398C25.6234 27.5054 25.6681 27.4278 25.6681 27.3247C25.6681 27.1857 25.5576 27.0707 25.3844 27.0707H25.0348V28.0865H25.4456C25.6399 28.0865 25.7532 27.97 25.7532 27.7952ZM26.6436 27.5767C26.6436 27.7335 26.5016 27.877 26.3449 27.877C26.1879 27.877 26.046 27.7335 26.046 27.5767C26.046 27.4199 26.1879 27.2781 26.3449 27.2781C26.5016 27.2781 26.6436 27.4199 26.6436 27.5767ZM26.8676 27.5782C26.8676 27.2973 26.6256 27.0554 26.3449 27.0554C26.064 27.0554 25.8221 27.2973 25.8221 27.5782C25.8221 27.859 26.064 28.101 26.3449 28.101C26.6256 28.101 26.8677 27.859 26.8677 27.5782H26.8676ZM27.7957 27.5767C27.7957 27.7335 27.6538 27.877 27.497 27.877C27.3401 27.877 27.1981 27.7335 27.1981 27.5767C27.1981 27.4199 27.3401 27.2781 27.497 27.2781C27.6538 27.2781 27.7957 27.4199 27.7957 27.5767ZM28.0198 27.5782C28.0198 27.2973 27.7777 27.0554 27.497 27.0554C27.2161 27.0554 26.9742 27.2973 26.9742 27.5782C26.9742 27.859 27.2161 28.101 27.497 28.101C27.7777 28.101 28.0198 27.859 28.0198 27.5782H28.0198ZM28.5955 27.274H28.8853V27.0707H28.0818V27.274H28.3715V28.0865H28.5955V27.274H28.5955ZM29.7177 27.741C29.6759 27.8306 29.5744 27.8919 29.4698 27.8919C29.3054 27.8919 29.1739 27.7515 29.1739 27.5782C29.1739 27.4064 29.3054 27.2646 29.4698 27.2646C29.5729 27.2646 29.6744 27.3213 29.7162 27.4124H29.9656C29.931 27.3083 29.8645 27.2178 29.7755 27.1537C29.6865 27.0896 29.5795 27.0552 29.4698 27.0555C29.1814 27.0555 28.947 27.2898 28.947 27.5782C28.947 27.8665 29.1814 28.101 29.4698 28.101C29.7012 28.101 29.8985 27.9501 29.9671 27.741H29.7176H29.7177ZM30.6489 27.6982H30.3919L30.5204 27.3366L30.6489 27.6982ZM31.0282 28.0865L30.616 27.0707H30.4263L30.0141 28.0865H30.2546L30.3278 27.8818H30.7146L30.7878 28.0865H31.0282ZM32.3941 28.0865L32.197 27.0707H31.9312L31.7206 27.7833L31.5085 27.0707H31.2425L31.0454 28.0865H31.2919L31.4114 27.386L31.61 28.0865H31.8296L32.0282 27.386L32.1478 28.0865H32.3941H32.3941ZM32.7181 27.7235H32.875C33.0392 27.7235 33.1857 27.6026 33.1857 27.3963C33.1857 27.2037 33.0392 27.0707 32.875 27.0707H32.494V28.0865H32.7181V27.7235ZM32.8376 27.2471C32.9033 27.2471 32.9721 27.3037 32.9721 27.3963C32.9721 27.4936 32.9033 27.5472 32.8376 27.5472H32.7181V27.247H32.8376V27.2471Z" fill="black"/>
<defs>
<filter id="filter0_d_1454_2" x="0" y="0" width="53.3423" height="51.7158" filterUnits="userSpaceOnUse" color-interpolation-filters="sRGB">
<feFlood flood-opacity="0" result="BackgroundImageFix"/>
<feColorMatrix in="SourceAlpha" type="matrix" values="0 0 0 0 0 0 0 0 0 0 0 0 0 0 0 0 0 0 127 0" result="hardAlpha"/>
<feOffset dx="1" dy="3"/>
<feGaussianBlur stdDeviation="5"/>
<feComposite in2="hardAlpha" operator="out"/>
<feColorMatrix type="matrix" values="0 0 0 0 0 0 0 0 0 0 0 0 0 0 0 0 0 0 0.13 0"/>
<feBlend mode="normal" in2="BackgroundImageFix" result="effect1_dropShadow_1454_2"/>
<feBlend mode="normal" in="SourceGraphic" in2="effect1_dropShadow_1454_2" result="shape"/>
</filter>
</defs>
</svg>
