<svg width="152" height="158" viewBox="0 0 152 158" fill="none" xmlns="http://www.w3.org/2000/svg">
<mask id="path-1-outside-1_1283_18" maskUnits="userSpaceOnUse" x="0" y="-1" width="152" height="160" fill="black">
<rect fill="white" y="-1" width="152" height="160"/>
<path fill-rule="evenodd" clip-rule="evenodd" d="M52.6394 2.60939C54.9056 1.3798 57.7307 2.06251 59.1911 4.19264L91.5037 51.3239V7.06203C91.5037 5.27906 92.4382 3.62761 93.9639 2.71456C95.4896 1.80151 97.3813 1.76156 98.9439 2.60939L146.939 28.6503C148.568 29.5344 149.583 31.2438 149.583 33.103V124.246C149.583 126.086 148.588 127.782 146.985 128.674L98.9899 155.366C96.8107 156.577 94.0763 156.01 92.5542 154.031L55.5396 105.887V150.938C55.5396 152.77 54.554 154.458 52.9624 155.354C51.3708 156.249 49.4214 156.211 47.8652 155.255L4.41049 128.563C2.91306 127.644 2 126.008 2 124.246V33.103C2 31.2438 3.01537 29.5344 4.6447 28.6503L52.6394 2.60939ZM45.4547 92.7362L12.085 48.2421V121.41L45.4547 141.907V92.7362ZM14.5956 34.7584L51.9848 84.6119L89.1241 65.7097L53.4508 13.6764L14.5956 34.7584ZM91.5037 75.8485L58.2112 92.7929L91.5037 136.095V75.8485ZM101.589 142.347L136.709 122.816L101.589 81.37V142.347ZM101.589 65.7457L139.498 110.483V36.1206L101.589 15.5516V65.7457Z"/>
</mask>
<path fill-rule="evenodd" clip-rule="evenodd" d="M52.6394 2.60939C54.9056 1.3798 57.7307 2.06251 59.1911 4.19264L91.5037 51.3239V7.06203C91.5037 5.27906 92.4382 3.62761 93.9639 2.71456C95.4896 1.80151 97.3813 1.76156 98.9439 2.60939L146.939 28.6503C148.568 29.5344 149.583 31.2438 149.583 33.103V124.246C149.583 126.086 148.588 127.782 146.985 128.674L98.9899 155.366C96.8107 156.577 94.0763 156.01 92.5542 154.031L55.5396 105.887V150.938C55.5396 152.77 54.554 154.458 52.9624 155.354C51.3708 156.249 49.4214 156.211 47.8652 155.255L4.41049 128.563C2.91306 127.644 2 126.008 2 124.246V33.103C2 31.2438 3.01537 29.5344 4.6447 28.6503L52.6394 2.60939ZM45.4547 92.7362L12.085 48.2421V121.41L45.4547 141.907V92.7362ZM14.5956 34.7584L51.9848 84.6119L89.1241 65.7097L53.4508 13.6764L14.5956 34.7584ZM91.5037 75.8485L58.2112 92.7929L91.5037 136.095V75.8485ZM101.589 142.347L136.709 122.816L101.589 81.37V142.347ZM101.589 65.7457L139.498 110.483V36.1206L101.589 15.5516V65.7457Z" fill="white"/>
<path d="M52.6394 2.60939L51.6856 0.851479V0.851479L52.6394 2.60939ZM59.1911 4.19264L57.5416 5.32355V5.32355L59.1911 4.19264ZM91.5037 51.3239L89.8541 52.4548C90.3497 53.1777 91.2584 53.4937 92.0956 53.2343C92.9329 52.9748 93.5037 52.2004 93.5037 51.3239H91.5037ZM98.9439 2.60939L97.9901 4.3673V4.3673L98.9439 2.60939ZM146.939 28.6503L145.985 30.4082L146.939 28.6503ZM146.985 128.674L147.957 130.421L146.985 128.674ZM98.9899 155.366L98.0179 153.618L98.9899 155.366ZM92.5542 154.031L90.9686 155.25L92.5542 154.031ZM55.5396 105.887L57.1252 104.668C56.6032 103.989 55.7067 103.718 54.8959 103.994C54.085 104.269 53.5396 105.031 53.5396 105.887H55.5396ZM52.9624 155.354L51.9818 153.61H51.9818L52.9624 155.354ZM47.8652 155.255L46.8184 156.96L46.8184 156.96L47.8652 155.255ZM4.41049 128.563L3.36369 130.268H3.3637L4.41049 128.563ZM4.6447 28.6503L3.69089 26.8924H3.69089L4.6447 28.6503ZM45.4547 92.7362H47.4547C47.4547 92.3035 47.3143 91.8824 47.0547 91.5363L45.4547 92.7362ZM12.085 48.2421L13.685 47.0422C13.1685 46.3535 12.2692 46.0726 11.4525 46.3448C10.6358 46.617 10.085 47.3813 10.085 48.2421H12.085ZM12.085 121.41H10.085C10.085 122.105 10.4459 122.75 11.0382 123.114L12.085 121.41ZM45.4547 141.907L44.4079 143.611C45.025 143.99 45.7989 144.006 46.431 143.652C47.0631 143.299 47.4547 142.631 47.4547 141.907H45.4547ZM14.5956 34.7584L13.6418 33.0005C13.1309 33.2777 12.7658 33.7636 12.6417 34.3315C12.5177 34.8995 12.6468 35.4933 12.9956 35.9584L14.5956 34.7584ZM51.9848 84.6119L50.3848 85.8119C50.968 86.5895 52.0258 86.8352 52.892 86.3943L51.9848 84.6119ZM89.1241 65.7097L90.0313 67.4921C90.5444 67.231 90.92 66.7614 91.0622 66.2036C91.2043 65.6457 91.0992 65.0536 90.7737 64.5788L89.1241 65.7097ZM53.4508 13.6764L55.1003 12.5455C54.5212 11.7007 53.3973 11.43 52.497 11.9185L53.4508 13.6764ZM91.5037 75.8485H93.5037C93.5037 75.1528 93.1421 74.5071 92.549 74.1435C91.9559 73.7799 91.2165 73.7506 90.5965 74.0661L91.5037 75.8485ZM58.2112 92.7929L57.3041 91.0104C56.774 91.2802 56.3915 91.7719 56.2604 92.352C56.1293 92.9321 56.2632 93.5404 56.6257 94.0119L58.2112 92.7929ZM91.5037 136.095L89.9181 137.314C90.4401 137.993 91.3365 138.264 92.1474 137.989C92.9583 137.713 93.5037 136.952 93.5037 136.095H91.5037ZM101.589 142.347H99.5886C99.5886 143.056 99.9638 143.712 100.575 144.071C101.186 144.431 101.941 144.44 102.561 144.095L101.589 142.347ZM136.709 122.816L137.681 124.563C138.204 124.273 138.569 123.763 138.676 123.174C138.784 122.585 138.621 121.979 138.235 121.523L136.709 122.816ZM101.589 81.37L103.114 80.077C102.572 79.4369 101.688 79.2034 100.9 79.4923C100.112 79.7812 99.5886 80.531 99.5886 81.37H101.589ZM101.589 65.7457H99.5886C99.5886 66.2193 99.7566 66.6774 100.063 67.0387L101.589 65.7457ZM139.498 110.483L137.973 111.776C138.515 112.416 139.399 112.65 140.187 112.361C140.975 112.072 141.498 111.322 141.498 110.483H139.498ZM139.498 36.1206H141.498C141.498 35.3872 141.097 34.7125 140.452 34.3627L139.498 36.1206ZM101.589 15.5516L102.542 13.7937C101.923 13.4574 101.172 13.4723 100.566 13.8329C99.9599 14.1935 99.5886 14.8465 99.5886 15.5516H101.589ZM53.5932 4.3673C54.9567 3.62752 56.6588 4.03597 57.5416 5.32355L60.8407 3.06173C58.8027 0.0890507 54.8545 -0.86791 51.6856 0.851479L53.5932 4.3673ZM57.5416 5.32355L89.8541 52.4548L93.1532 50.193L60.8407 3.06172L57.5416 5.32355ZM93.5037 51.3239V7.06203H89.5037V51.3239H93.5037ZM93.5037 7.06203C93.5037 5.97998 94.0708 4.98135 94.9909 4.43072L92.9369 0.998398C90.8056 2.27386 89.5037 4.57814 89.5037 7.06203H93.5037ZM94.9909 4.43072C95.9102 3.88057 97.0489 3.85662 97.9901 4.3673L99.8977 0.851479C97.7138 -0.333497 95.069 -0.277554 92.9369 0.998398L94.9909 4.43072ZM97.9901 4.3673L145.985 30.4082L147.892 26.8924L99.8977 0.851479L97.9901 4.3673ZM145.985 30.4082C146.967 30.9412 147.583 31.9746 147.583 33.103H151.583C151.583 30.513 150.169 28.1275 147.892 26.8924L145.985 30.4082ZM147.583 33.103V124.246H151.583V33.103H147.583ZM147.583 124.246C147.583 125.363 146.979 126.388 146.013 126.926L147.957 130.421C150.197 129.175 151.583 126.81 151.583 124.246H147.583ZM146.013 126.926L98.0179 153.618L99.962 157.113L147.957 130.421L146.013 126.926ZM98.0179 153.618C96.7064 154.347 95.0593 154.008 94.1397 152.811L90.9686 155.25C93.0933 158.013 96.915 158.808 99.962 157.113L98.0179 153.618ZM94.1397 152.811L57.1252 104.668L53.9541 107.106L90.9686 155.25L94.1397 152.811ZM53.5396 105.887V150.938H57.5396V105.887H53.5396ZM53.5396 150.938C53.5396 152.05 52.9415 153.071 51.9818 153.61L53.943 157.097C56.1666 155.846 57.5396 153.49 57.5396 150.938H53.5396ZM51.9818 153.61C51.0231 154.15 49.8497 154.127 48.9119 153.551L46.8184 156.96C48.9932 158.295 51.7185 158.348 53.943 157.097L51.9818 153.61ZM48.9119 153.551L5.45727 126.859L3.3637 130.268L46.8184 156.96L48.9119 153.551ZM5.45728 126.859C4.55413 126.305 4 125.316 4 124.246H0C0 126.701 1.27199 128.983 3.36369 130.268L5.45728 126.859ZM4 124.246V33.103H0V124.246H4ZM4 33.103C4 31.9746 4.61623 30.9412 5.5985 30.4082L3.69089 26.8924C1.4145 28.1275 0 30.5131 0 33.103H4ZM5.5985 30.4082L53.5932 4.3673L51.6856 0.851479L3.69089 26.8924L5.5985 30.4082ZM47.0547 91.5363L13.685 47.0422L10.485 49.4421L43.8547 93.9362L47.0547 91.5363ZM10.085 48.2421V121.41H14.085V48.2421H10.085ZM11.0382 123.114L44.4079 143.611L46.5015 140.203L13.1318 119.705L11.0382 123.114ZM47.4547 141.907V92.7362H43.4547V141.907H47.4547ZM12.9956 35.9584L50.3848 85.8119L53.5848 83.4119L16.1957 33.5584L12.9956 35.9584ZM52.892 86.3943L90.0313 67.4921L88.2169 63.9273L51.0776 82.8295L52.892 86.3943ZM90.7737 64.5788L55.1003 12.5455L51.8012 14.8073L87.4746 66.8406L90.7737 64.5788ZM52.497 11.9185L13.6418 33.0005L15.5495 36.5163L54.4046 15.4343L52.497 11.9185ZM90.5965 74.0661L57.3041 91.0104L59.1184 94.5753L92.4108 77.631L90.5965 74.0661ZM56.6257 94.0119L89.9181 137.314L93.0892 134.876L59.7968 91.5738L56.6257 94.0119ZM93.5037 136.095V75.8485H89.5037V136.095H93.5037ZM102.561 144.095L137.681 124.563L135.737 121.068L100.617 140.599L102.561 144.095ZM138.235 121.523L103.114 80.077L100.063 82.663L135.183 124.109L138.235 121.523ZM99.5886 81.37V142.347H103.589V81.37H99.5886ZM100.063 67.0387L137.973 111.776L141.024 109.19L103.114 64.4528L100.063 67.0387ZM141.498 110.483V36.1206H137.498V110.483H141.498ZM140.452 34.3627L102.542 13.7937L100.635 17.3095L138.545 37.8785L140.452 34.3627ZM99.5886 15.5516V65.7457H103.589V15.5516H99.5886Z" fill="white" mask="url(#path-1-outside-1_1283_18)"/>
</svg>
