<svg width="346" height="81" viewBox="0 0 346 81" fill="none" xmlns="http://www.w3.org/2000/svg">
<path d="M139.863 31.4685C137.67 31.3585 135.488 31.8466 133.55 32.8806C131.613 33.9146 129.992 35.4556 128.863 37.339C128.02 35.4608 126.617 33.8888 124.847 32.838C123.077 31.7872 121.025 31.3089 118.973 31.4685C116.953 31.3495 114.938 31.7781 113.142 32.709C111.345 33.6398 109.833 35.0385 108.765 36.7573V31.6888H105.169V59.4991H108.915V44.902C108.915 38.5555 112.564 34.8533 118.223 34.8533C123.292 34.8533 126.262 37.8679 126.262 43.7385V59.4991H130.009V44.902C130.009 38.5555 133.605 34.8533 139.317 34.8533C144.341 34.8533 147.303 37.8679 147.303 43.7385V59.4991H151.049V43.3683C151.076 35.3822 146.633 31.4685 139.863 31.4685ZM180.428 31.6888L169.957 55.3121L159.485 31.68H155.571L168 59.4462L166.783 62.1435C165.197 65.6341 163.504 66.7976 161.019 66.7976C160.074 66.808 159.138 66.6258 158.266 66.2621C157.395 65.8983 156.607 65.3607 155.95 64.6821L154.205 67.4852C156.04 69.1887 158.472 70.1007 160.975 70.0238C164.941 70.0238 167.903 68.2785 170.23 62.831L184.139 31.68L180.428 31.6888ZM217.291 22.4775V52.5179L193.439 22.4775H190.213V59.4991H194.126V29.4587L217.926 59.4991H221.152V22.4775H217.291ZM256.693 45.5896C256.693 37.2333 251.034 31.4685 243.206 31.4685C241.368 31.4392 239.544 31.7885 237.846 32.4947C236.149 33.201 234.615 34.249 233.34 35.5735C232.065 36.8981 231.076 38.4709 230.435 40.194C229.794 41.9172 229.515 43.7538 229.614 45.5896C229.556 47.503 229.896 49.4077 230.615 51.1821C231.334 52.9565 232.414 54.5616 233.787 55.8952C235.161 57.2288 236.797 58.2616 238.592 58.9276C240.387 59.5936 242.3 59.8783 244.211 59.7635C246.225 59.8422 248.232 59.4754 250.088 58.6892C251.944 57.9029 253.603 56.7167 254.948 55.2152L252.832 52.7911C251.764 53.9823 250.449 54.9254 248.978 55.5543C247.507 56.1832 245.916 56.4826 244.317 56.4316C242.962 56.5196 241.602 56.3386 240.317 55.8991C239.032 55.4596 237.847 54.7702 236.829 53.8706C235.811 52.971 234.982 51.879 234.388 50.6575C233.794 49.4359 233.448 48.109 233.369 46.7531H256.64C256.64 46.33 256.693 45.9069 256.693 45.5896ZM243.206 34.6946C245.738 34.6363 248.192 35.5729 250.041 37.3033C251.89 39.0337 252.987 41.42 253.096 43.95H233.369C233.475 41.4281 234.564 39.0479 236.402 37.3182C238.241 35.5886 240.683 34.6469 243.206 34.6946ZM285.57 59.4991L274.463 45.2193L284.935 31.68H280.81L272.453 42.5749L264.106 31.68H259.875L270.338 45.2193L259.337 59.4991H263.568L272.453 47.8637L281.295 59.4991H285.57ZM312.587 31.68V46.2771C312.587 52.6236 308.937 56.3787 303.111 56.3787C297.822 56.3787 294.754 53.3641 294.754 47.4406V31.68H291.008V47.8197C291.017 55.7969 295.671 59.7635 302.758 59.7635C304.75 59.8577 306.731 59.4119 308.49 58.4732C310.25 57.5345 311.723 56.1377 312.754 54.4307V59.4991H316.35V31.68H312.587ZM334.332 59.7635C341.578 59.7635 345.809 56.6431 345.809 51.8303C345.809 41.147 327.774 46.806 327.774 39.2959C327.774 36.6515 329.995 34.6946 335.02 34.6946C337.931 34.6323 340.792 35.4628 343.217 37.0746L344.857 34.06C341.877 32.3111 338.474 31.4146 335.02 31.4685C327.933 31.4685 324.019 34.8533 324.019 39.4017C324.019 50.4024 342.054 44.6905 342.054 51.9361C342.054 54.6863 339.886 56.4845 334.597 56.4845C331.053 56.5131 327.592 55.421 324.707 53.3641L323.014 56.3258C326.312 58.6737 330.286 59.8808 334.332 59.7635Z" fill="white"/>
<path d="M33.3955 34.7939C31.9805 34.8025 30.6254 35.366 29.6215 36.3633C28.6177 37.3605 28.0452 38.7119 28.0274 40.1268C28.0239 41.185 28.3343 42.2205 28.9193 43.1023C29.5043 43.9841 30.3377 44.6727 31.314 45.0809C32.2904 45.489 33.3658 45.5985 34.4044 45.3955C35.4429 45.1925 36.398 44.686 37.1487 43.9402C37.8995 43.1944 38.4122 42.2427 38.622 41.2055C38.8319 40.1683 38.7295 39.0922 38.3278 38.1132C37.926 37.1342 37.243 36.2963 36.3651 35.7055C35.4871 35.1147 34.4537 34.7974 33.3955 34.7939Z" fill="white"/>
<path d="M54.5376 32.7293C55.2471 32.7479 55.9532 32.6247 56.6146 32.3672C57.2759 32.1096 57.8793 31.7227 58.3894 31.2292C58.8995 30.7357 59.3061 30.1455 59.5854 29.493C59.8648 28.8405 60.0112 28.1389 60.0162 27.4292C60.0212 26.7194 59.8846 26.0158 59.6145 25.3595C59.3443 24.7031 58.946 24.1072 58.4429 23.6066C57.9398 23.106 57.3419 22.7107 56.6842 22.4439C56.0265 22.1771 55.3222 22.044 54.6125 22.0526C53.903 22.0341 53.1969 22.1572 52.5355 22.4148C51.8742 22.6724 51.2708 23.0592 50.7607 23.5527C50.2506 24.0462 49.844 24.6365 49.5647 25.2889C49.2853 25.9414 49.1389 26.6431 49.1339 27.3528C49.1289 28.0625 49.2655 28.7661 49.5356 29.4225C49.8058 30.0788 50.2041 30.6747 50.7072 31.1753C51.2103 31.6759 51.8082 32.0712 52.4659 32.338C53.1236 32.6049 53.8279 32.7379 54.5376 32.7293Z" fill="white"/>
<path d="M54.5615 58.2244C55.2615 58.2305 55.9558 58.0984 56.6047 57.8358C57.2536 57.5731 57.8443 57.185 58.3429 56.6937C58.8416 56.2025 59.2384 55.6176 59.5107 54.9727C59.783 54.3278 59.9253 53.6356 59.9297 52.9356C59.941 51.8768 59.6377 50.8385 59.0581 49.9523C58.4786 49.0661 57.649 48.372 56.6745 47.9579C55.7 47.5439 54.6244 47.4285 53.5843 47.6265C52.5441 47.8245 51.5861 48.3269 50.8319 49.07C50.0776 49.8132 49.561 50.7635 49.3475 51.8006C49.1341 52.8377 49.2334 53.9149 49.6329 54.8954C50.0324 55.876 50.7141 56.7159 51.5916 57.3085C52.469 57.9012 53.5027 58.2199 54.5615 58.2244Z" fill="white"/>
<path d="M86.711 33.2863L71.5057 6.92833C70.2869 4.82255 68.536 3.07407 66.4285 1.8581C64.3211 0.642129 61.9311 0.00135433 59.498 5.66177e-06H29.05C26.6182 -0.00219508 24.229 0.637218 22.1234 1.85368C20.0178 3.07014 18.2704 4.8206 17.0576 6.92833L1.85236 33.2863C0.638764 35.3937 0 37.7828 0 40.2147C0 42.6465 0.638764 45.0356 1.85236 47.143L17.0753 73.501C18.2906 75.6069 20.0389 77.3559 22.1444 78.5721C24.2498 79.7882 26.6383 80.4288 29.0698 80.4293H59.5002C61.9322 80.4314 64.3217 79.792 66.4277 78.5756C68.5336 77.3592 70.2814 75.6087 71.4947 73.501L86.711 47.143C87.9246 45.0356 88.5634 42.6465 88.5634 40.2147C88.5634 37.7828 87.9246 35.3937 86.711 33.2863ZM39.7069 43.064C42.8096 44.9261 45.8771 46.775 49.0173 48.6503C50.1153 47.2103 51.7304 46.2539 53.5209 45.9835C55.3114 45.7131 57.1369 46.1499 58.6111 47.2015C60.0852 48.2531 61.0925 49.837 61.4196 51.618C61.7468 53.399 61.3682 55.2375 60.364 56.7443C59.3868 58.19 57.9038 59.2175 56.2069 59.6245C54.51 60.0314 52.7222 59.7883 51.1956 58.9431C49.669 58.0978 48.5141 56.7116 47.9585 55.0575C47.4028 53.4033 47.4865 51.601 48.1932 50.0055C45.1081 48.1427 42.0229 46.2806 38.9378 44.4193C38.0421 45.5697 36.8088 46.4109 35.4109 46.8252C34.013 47.2395 32.5205 47.2061 31.1426 46.7295C29.7647 46.2529 28.5705 45.3572 27.7272 44.1678C26.884 42.9783 26.434 41.5549 26.4404 40.0969C26.4468 38.6389 26.9093 37.2195 27.7629 36.0375C28.6166 34.8556 29.8186 33.9703 31.2007 33.5059C32.5827 33.0414 34.0755 33.021 35.4697 33.4476C36.8639 33.8741 38.0897 34.7262 38.9753 35.8845C42.0398 34.0466 45.125 32.197 48.2307 30.3356C47.8019 29.3627 47.5953 28.3066 47.6258 27.2438C47.6562 26.1811 47.9231 25.1385 48.4069 24.1918C49.1492 22.7217 50.4031 21.5736 51.9328 20.9635C53.4899 20.3116 55.2316 20.2519 56.8297 20.7954C58.4277 21.3389 59.7718 22.4482 60.6086 23.9142C61.4805 25.4479 61.7404 27.2545 61.3362 28.9717C60.932 30.689 59.8936 32.1901 58.4292 33.1739C56.9648 34.1577 55.1826 34.5516 53.4399 34.2765C51.6973 34.0015 50.123 33.0779 49.0328 31.6909C45.9278 33.553 42.8625 35.4019 39.762 37.2772C40.152 38.1932 40.3492 39.1798 40.3412 40.1754C40.3333 41.171 40.1203 42.1543 39.7157 43.064H39.7069Z" fill="white"/>
</svg>
