<svg width="23" height="23" viewBox="0 0 23 23" fill="none" xmlns="http://www.w3.org/2000/svg">
<rect width="23" height="23" rx="11.5" fill="#EBEAEB"/>
<path fill-rule="evenodd" clip-rule="evenodd" d="M11.0095 16.2079C13.9668 16.2079 16.3641 13.8105 16.3641 10.8533C16.3641 7.89598 13.9668 5.49864 11.0095 5.49864C8.05223 5.49864 5.65489 7.89598 5.65489 10.8533C5.65489 13.8105 8.05223 16.2079 11.0095 16.2079ZM11.0095 17.8628C14.8807 17.8628 18.019 14.7245 18.019 10.8533C18.019 6.98201 14.8807 3.84375 11.0095 3.84375C7.13826 3.84375 4 6.98201 4 10.8533C4 14.7245 7.13826 17.8628 11.0095 17.8628Z" fill="#070909"/>
<path d="M13.7911 17.1647C13.3544 16.6461 13.4207 15.8717 13.9393 15.435C14.4579 14.9982 15.2323 15.0646 15.6691 15.5831L17.8738 18.201C18.3105 18.7195 18.2442 19.494 17.7256 19.9307C17.207 20.3674 16.4326 20.3011 15.9958 19.7825L13.7911 17.1647Z" fill="#070909"/>
<path d="M7.78497 9.72147C7.78497 9.45884 7.99788 9.24593 8.26052 9.24593H13.9861C14.2487 9.24593 14.4616 9.45884 14.4616 9.72147V12.822C14.4616 13.0846 14.2487 13.2976 13.9861 13.2976H8.26052C7.99788 13.2976 7.78497 13.0846 7.78497 12.822V9.72147Z" fill="#070909"/>
<path fill-rule="evenodd" clip-rule="evenodd" d="M11.8751 8.5231H10.2582C10.2267 8.5231 10.2012 8.54864 10.2012 8.58016V9.37907C10.2012 9.41059 10.2267 9.43614 10.2582 9.43614H11.8751C11.9066 9.43614 11.9321 9.41059 11.9321 9.37907V8.58016C11.9321 8.54865 11.9066 8.5231 11.8751 8.5231ZM10.2582 8.02853C9.95356 8.02853 9.70659 8.2755 9.70659 8.58016V9.37907C9.70659 9.68373 9.95356 9.9307 10.2582 9.9307H11.8751C12.1797 9.9307 12.4267 9.68373 12.4267 9.37907V8.58016C12.4267 8.2755 12.1797 8.02853 11.8751 8.02853H10.2582Z" fill="#070909"/>
</svg>
