<svg width="49" height="46" viewBox="0 0 49 46" fill="none" xmlns="http://www.w3.org/2000/svg">
<rect width="48.359" height="46" rx="11.7949" fill="#FBAF00"/>
<path d="M32.8276 17.8313L30.4796 20.1793H28.722H27.7593L27.3302 20.6084L25.6979 22.2407L24.6809 23.2577L23.8209 24.1178C23.6922 24.2464 23.5237 24.3107 23.3551 24.3107C23.1803 24.3107 23.0053 24.2415 22.8751 24.1032C22.6278 23.8406 22.6538 23.4217 22.9088 23.1666L24.6199 21.4555L24.7509 21.3244L26.3902 19.6851L26.8276 19.2477V18.3099V16.5274L27.6395 15.7156L29.1756 14.1794C29.196 14.1591 29.2173 14.1414 29.2391 14.1249C29.2443 14.1209 29.2494 14.117 29.2548 14.1133C29.2765 14.0978 29.2988 14.0836 29.3216 14.0717C29.3234 14.0706 29.3253 14.07 29.3273 14.069C29.3489 14.0581 29.3708 14.0489 29.3931 14.0409C29.3987 14.0388 29.4042 14.0368 29.4098 14.035C29.4334 14.0274 29.4573 14.0209 29.4814 14.0165C29.4847 14.0159 29.4881 14.0157 29.4914 14.015C29.5131 14.0115 29.5348 14.0093 29.5565 14.0082C29.5621 14.0079 29.5677 14.0075 29.5733 14.0073C29.5975 14.0069 29.6217 14.0076 29.6457 14.0101C29.6496 14.0105 29.6536 14.0113 29.6575 14.0117C29.6783 14.0143 29.699 14.0181 29.7193 14.0229C29.725 14.0242 29.7308 14.0254 29.7365 14.0269C29.7597 14.0331 29.7827 14.0403 29.8049 14.0491C29.8082 14.0504 29.8114 14.0521 29.8146 14.0534C29.8341 14.0615 29.8532 14.0708 29.8717 14.081C29.8771 14.084 29.8824 14.0868 29.8875 14.0898C29.9083 14.1021 29.9285 14.1152 29.9477 14.1298C29.95 14.1316 29.9521 14.1336 29.9543 14.1353C29.9714 14.1488 29.9877 14.1634 30.0033 14.1788C30.0077 14.1831 30.0121 14.1874 30.0164 14.1919C30.0332 14.2097 30.0493 14.2281 30.0639 14.2481C30.0651 14.2497 30.0661 14.2516 30.0674 14.2533C30.0807 14.272 30.0926 14.2916 30.1037 14.312C30.1068 14.3176 30.1098 14.3233 30.1127 14.329C30.124 14.3516 30.1344 14.375 30.1428 14.3996C30.1432 14.4008 30.1434 14.402 30.1438 14.4032C30.1517 14.4268 30.1577 14.4514 30.1626 14.4767C30.1638 14.4834 30.165 14.4902 30.1661 14.497C30.1704 14.524 30.1736 14.5516 30.1742 14.5804L30.2214 16.7854L30.2685 16.7864L32.4263 16.8325C32.5427 16.835 32.6447 16.8699 32.7301 16.925C32.7627 16.946 32.7937 16.969 32.821 16.9956C32.8604 17.0342 32.894 17.0781 32.921 17.1256C32.9481 17.1731 32.9686 17.2242 32.982 17.2772C33.0287 17.463 32.987 17.672 32.8276 17.8313ZM23.2388 18.6217C20.363 18.6217 18.0233 20.9615 18.0233 23.8373C18.0233 26.7131 20.363 29.0529 23.2388 29.0529C26.1147 29.0529 28.4544 26.7131 28.4544 23.8373C28.4544 23.1279 28.3108 22.4519 28.0528 21.8352L26.168 23.72C26.1696 23.7591 26.1724 23.7979 26.1724 23.8374C26.1724 25.455 24.8564 26.771 23.2387 26.771C21.6211 26.771 20.3051 25.455 20.3051 23.8374C20.3051 22.2254 21.6121 20.9134 23.2218 20.9042L25.1434 18.9827C24.5532 18.75 23.9107 18.6217 23.2388 18.6217ZM31.4542 21.154C31.1957 21.4125 30.8451 21.5577 30.4795 21.5577H29.4249C29.6879 22.2684 29.8328 23.0361 29.8328 23.8372C29.8328 27.4732 26.8748 30.4311 23.2388 30.4311C19.6029 30.4311 16.6449 27.4732 16.6449 23.8372C16.6449 20.2013 19.6029 17.2433 23.2388 17.2433C24.0142 17.2433 24.758 17.3792 25.4493 17.6266V16.5274C25.4493 16.1619 25.5945 15.8112 25.853 15.5528L26.289 15.1167C25.3336 14.7816 24.3073 14.5985 23.2387 14.5985C18.1445 14.5986 14 18.743 14 23.8373C14 28.9316 18.1446 33.0761 23.2388 33.0761C28.3331 33.0761 32.4777 28.9316 32.4777 23.8373C32.4777 22.7307 32.2814 21.6694 31.9229 20.6853L31.4542 21.154Z" fill="#070909"/>
</svg>
