<svg xmlns="http://www.w3.org/2000/svg" width="132" height="55" viewBox="0 0 132 55" fill="none">
  <g clip-path="url(#clip0_497_920)">
    <path d="M129.398 15.7969L130.415 17.3164H129.696L128.706 15.8297H128.096V17.3164H127.496V13.4902H129.063C129.434 13.4902 129.735 13.6013 129.966 13.8236C130.2 14.0423 130.317 14.321 130.317 14.6599C130.317 14.9405 130.234 15.1847 130.069 15.3924C129.903 15.6001 129.679 15.7349 129.398 15.7969ZM129.063 14.0313H128.096V15.2776H129.063C129.251 15.2776 129.404 15.2193 129.523 15.1027C129.642 14.9824 129.701 14.833 129.701 14.6545C129.701 14.4759 129.642 14.3283 129.523 14.2117C129.404 14.0915 129.251 14.0313 129.063 14.0313Z" fill="white"/>
    <path fill-rule="evenodd" clip-rule="evenodd" d="M128.665 18.485C130.29 18.485 131.607 17.1532 131.607 15.5104C131.607 13.8676 130.29 12.5359 128.665 12.5359C127.04 12.5359 125.723 13.8676 125.723 15.5104C125.723 17.1532 127.04 18.485 128.665 18.485ZM128.665 19.1224C130.638 19.1224 132.237 17.5053 132.237 15.5104C132.237 13.5156 130.638 11.8985 128.665 11.8985C126.692 11.8985 125.093 13.5156 125.093 15.5104C125.093 17.5053 126.692 19.1224 128.665 19.1224Z" fill="white"/>
    <path d="M78.6612 29.9468V13.9381H82.8545V31.2048H74.7392L71.2612 15.1961V31.2048H67.0679V13.9381H75.1832L78.6612 29.9468Z" fill="white"/>
    <path d="M89.5203 31.2048H85.327V13.9381H89.5203V31.2048Z" fill="white"/>
    <path d="M107.811 13.9381L101.25 25.2354V31.2048H97.0567V25.2354L90.4954 13.9381H95.4287L99.2767 21.0421L103.125 13.9381H107.811Z" fill="white"/>
    <path d="M109.441 28.8861C107.698 27.1759 106.826 25.071 106.826 22.5714C106.826 20.0719 107.698 17.967 109.441 16.2568C111.201 14.5466 113.371 13.6914 115.953 13.6914C118.535 13.6914 120.697 14.5466 122.44 16.2568C124.2 17.967 125.08 20.0719 125.08 22.5714C125.08 25.071 124.2 27.1759 122.44 28.8861C120.697 30.5963 118.535 31.4514 115.953 31.4514C113.371 31.4514 111.201 30.5963 109.441 28.8861ZM112.549 18.9948C111.628 19.965 111.168 21.1572 111.168 22.5714C111.168 23.9857 111.628 25.1779 112.549 26.1481C113.47 27.1183 114.605 27.6034 115.953 27.6034C117.302 27.6034 118.436 27.1183 119.357 26.1481C120.278 25.1779 120.738 23.9857 120.738 22.5714C120.738 21.1572 120.278 19.965 119.357 18.9948C118.436 18.0246 117.302 17.5394 115.953 17.5394C114.605 17.5394 113.47 18.0246 112.549 18.9948Z" fill="white"/>
    <path fill-rule="evenodd" clip-rule="evenodd" d="M35.1666 9.14641C35.7111 8.85099 36.3899 9.01502 36.7407 9.5268L44.5041 20.8505V10.2162C44.5041 9.78783 44.7287 9.39105 45.0952 9.17168C45.4618 8.95231 45.9163 8.94271 46.2917 9.14641L57.8229 15.403C58.2144 15.6154 58.4583 16.0261 58.4583 16.4728V38.3708C58.4583 38.813 58.2193 39.2203 57.834 39.4346L46.3028 45.8476C45.7792 46.1387 45.1222 46.0025 44.7565 45.5268L35.8634 33.9599V44.7838C35.8634 45.2239 35.6266 45.6296 35.2442 45.8447C34.8618 46.0598 34.3935 46.0508 34.0195 45.8211L23.5791 39.4081C23.2194 39.1871 23 38.7942 23 38.3708V16.4728C23 16.0261 23.244 15.6154 23.6354 15.403L35.1666 9.14641ZM33.4404 30.8003L25.423 20.1101V37.6893L33.4404 42.614V30.8003ZM26.0262 16.8705L35.0093 28.8483L43.9324 24.3069L35.3616 11.8054L26.0262 16.8705ZM44.5041 26.7428L36.5053 30.8139L44.5041 41.2176V26.7428ZM46.9271 42.7198L55.3651 38.0271L46.9271 28.0694V42.7198ZM46.9271 24.3155L56.0353 35.0642V17.1978L46.9271 12.2559V24.3155Z" fill="white"/>
    <path d="M70.201 38.1979H74.143C74.1946 38.9064 74.0657 39.5506 73.7566 40.1303C73.4538 40.71 73.0319 41.1576 72.4909 41.4732C71.9562 41.7889 71.3701 41.9467 70.7324 41.9467C69.7405 41.9467 68.9063 41.6117 68.23 40.9418C67.5601 40.272 67.2252 39.4475 67.2252 38.4684C67.2252 37.4894 67.5601 36.6649 68.23 35.995C68.9063 35.3251 69.7405 34.9902 70.7324 34.9902C71.4474 34.9902 72.0786 35.177 72.6261 35.5506C73.1736 35.9177 73.573 36.3815 73.8242 36.9419L73.1382 37.2317C72.9256 36.7744 72.6036 36.404 72.172 36.1206C71.7469 35.8308 71.267 35.6858 70.7324 35.6858C69.9659 35.6858 69.3186 35.9564 68.7904 36.4974C68.2622 37.032 67.9981 37.689 67.9981 38.4684C67.9981 39.2478 68.2622 39.908 68.7904 40.4491C69.3186 40.9837 69.9659 41.251 70.7324 41.251C71.4474 41.251 72.0464 41.0224 72.5295 40.565C73.0126 40.1013 73.2799 39.5409 73.3314 38.8839H70.201V38.1979Z" fill="white"/>
    <path d="M76.0121 36.9612V38.2752C76.1796 37.7148 76.4372 37.3251 76.7851 37.1061C77.1393 36.8871 77.5451 36.8195 78.0025 36.9032V37.6085C77.455 37.4861 76.9847 37.5699 76.5918 37.8597C76.2054 38.1432 76.0121 38.5425 76.0121 39.0578V41.8501H75.2875V36.9612H76.0121Z" fill="white"/>
    <path d="M78.8856 41.222C78.3961 40.7325 78.1513 40.127 78.1513 39.4056C78.1513 38.6842 78.3961 38.082 78.8856 37.5989C79.3816 37.1093 79.9935 36.8646 80.7213 36.8646C81.4492 36.8646 82.0579 37.1093 82.5474 37.5989C83.0434 38.082 83.2914 38.6842 83.2914 39.4056C83.2914 40.127 83.0434 40.7325 82.5474 41.222C82.0579 41.7051 81.4492 41.9467 80.7213 41.9467C79.9935 41.9467 79.3816 41.7051 78.8856 41.222ZM79.417 38.082C79.0692 38.4362 78.8953 38.8774 78.8953 39.4056C78.8953 39.9338 79.0692 40.3782 79.417 40.739C79.7713 41.0932 80.206 41.2703 80.7213 41.2703C81.2431 41.2703 81.6779 41.0932 82.0257 40.739C82.3735 40.3847 82.5474 39.9402 82.5474 39.4056C82.5474 38.871 82.3735 38.4266 82.0257 38.0723C81.6779 37.718 81.2431 37.5409 80.7213 37.5409C80.206 37.5409 79.7713 37.7213 79.417 38.082Z" fill="white"/>
    <path d="M84.2405 39.8501V36.9612H84.9651V39.8501C84.9651 40.2687 85.1004 40.6101 85.3709 40.8742C85.6415 41.1383 85.9828 41.2703 86.3951 41.2703C86.8073 41.2703 87.1487 41.1383 87.4192 40.8742C87.6897 40.6101 87.825 40.2687 87.825 39.8501V36.9612H88.5496V39.8501C88.5496 40.4684 88.3467 40.9741 87.9409 41.367C87.5352 41.7534 87.0199 41.9467 86.3951 41.9467C85.7703 41.9467 85.255 41.7534 84.8492 41.367C84.4434 40.9741 84.2405 40.4684 84.2405 39.8501Z" fill="white"/>
    <path d="M92.5538 36.8646C93.2172 36.8646 93.7679 37.1093 94.2059 37.5989C94.6504 38.082 94.8726 38.6842 94.8726 39.4056C94.8726 40.1335 94.6504 40.7389 94.2059 41.222C93.7679 41.7051 93.2172 41.9467 92.5538 41.9467C92.0707 41.9467 91.6423 41.8082 91.2688 41.5312C90.9016 41.2478 90.6375 40.8742 90.4765 40.4104V43.7824H89.7519V36.9612H90.4765V38.4105C90.6375 37.9403 90.9016 37.5667 91.2688 37.2897C91.6423 37.0063 92.0707 36.8646 92.5538 36.8646ZM92.3509 41.2703C92.8533 41.2703 93.2752 41.0932 93.6166 40.739C93.958 40.3782 94.1286 39.9338 94.1286 39.4056C94.1286 38.8774 93.958 38.4362 93.6166 38.082C93.2752 37.7213 92.8533 37.5409 92.3509 37.5409C91.8098 37.5409 91.3622 37.718 91.0079 38.0723C90.6536 38.4266 90.4765 38.871 90.4765 39.4056C90.4765 39.9402 90.6536 40.3847 91.0079 40.739C91.3622 41.0932 91.8098 41.2703 92.3509 41.2703Z" fill="white"/>
  </g>
  <defs>
    <clipPath id="clip0_497_920">
      <rect width="132" height="55" fill="white"/>
    </clipPath>
  </defs>
</svg>